<svg width="30" height="50" viewBox="0 0 30 50" fill="none" xmlns="http://www.w3.org/2000/svg">
<path d="M21.9083 26.7174C22.2188 26.0384 23.0794 25.4094 23.8215 25.3252C24.5637 25.241 25.24 24.562 25.3242 23.8199C25.4137 23.083 26.04 22.2198 26.7164 21.9066C27.0571 21.7332 27.3344 21.4567 27.5088 21.1165C27.6832 20.7762 27.7457 20.3896 27.6875 20.0118C27.5348 19.2802 27.8664 18.267 28.4138 17.7643C28.6853 17.4934 28.8639 17.1435 28.9239 16.7647C28.984 16.3859 28.9224 15.9979 28.7481 15.6563C28.5676 15.289 28.4737 14.8853 28.4737 14.476C28.4737 14.0668 28.5676 13.663 28.7481 13.2957C28.9228 12.9542 28.9846 12.5661 28.9246 12.1872C28.8645 11.8084 28.6857 11.4584 28.4138 11.1877C27.8664 10.6798 27.5375 9.66922 27.6875 8.94024C27.7465 8.5616 27.6843 8.17401 27.5099 7.83279C27.3355 7.49157 27.0578 7.21416 26.7164 7.04015C26.3548 6.84724 26.0417 6.57484 25.8005 6.24345C25.5594 5.91206 25.3965 5.53031 25.3242 5.12691C25.2642 4.7497 25.0866 4.40108 24.8168 4.13076C24.5469 3.86045 24.1986 3.68225 23.8215 3.62158C23.418 3.55065 23.0359 3.38864 22.7043 3.14786C22.3728 2.90708 22.1006 2.59386 21.9083 2.23204C21.7346 1.89072 21.457 1.61346 21.1154 1.44032C20.7739 1.26717 20.3861 1.20712 20.0082 1.26884C19.6026 1.32568 19.1894 1.28934 18.8 1.16257C18.4105 1.0358 18.0551 0.821934 17.7607 0.537225C17.2528 -0.0154319 16.3054 -0.162807 15.6554 0.202999C15.0053 0.568805 13.9395 0.568805 13.2921 0.202999C12.9515 0.025932 12.5633 -0.0376522 12.1841 0.0215285C11.8049 0.0807091 11.4545 0.259556 11.1841 0.531961C10.8899 0.816999 10.5345 1.03108 10.145 1.15787C9.75553 1.28466 9.34222 1.32082 8.93662 1.26357C8.55918 1.20285 8.17221 1.26369 7.83161 1.4373C7.49101 1.61091 7.21442 1.8883 7.0418 2.22941C6.72863 2.90312 5.86806 3.5321 5.12593 3.61631C4.74813 3.67701 4.39917 3.8555 4.12884 4.1263C3.85851 4.3971 3.68063 4.74638 3.62059 5.12428C3.5492 5.52768 3.38669 5.90946 3.14544 6.24056C2.90418 6.57166 2.59055 6.84333 2.22843 7.03489C1.8882 7.20977 1.61189 7.48764 1.43892 7.82885C1.26596 8.17006 1.20517 8.55717 1.26522 8.93497C1.40997 9.66396 1.081 10.6772 0.533612 11.1824C-0.0137817 11.6877 -0.16642 12.6351 0.199386 13.2904C0.565192 13.9378 0.565192 15.0037 0.199386 15.6511C0.0248076 15.993 -0.0368882 16.3815 0.0231631 16.7607C0.0832144 17.14 0.261922 17.4904 0.533612 17.7617C1.08364 18.2617 1.40997 19.2749 1.26522 20.0092C1.20511 20.3862 1.26593 20.7727 1.43896 21.1131C1.61199 21.4535 1.88835 21.7303 2.22843 21.904C2.9074 22.2172 3.53112 23.0804 3.61796 23.8172C3.70744 24.5594 4.38116 25.2383 5.12329 25.3226C5.86543 25.4068 6.726 26.0384 7.03917 26.7147C7.21314 27.0545 7.49006 27.3307 7.83036 27.5036C8.17067 27.6766 8.55694 27.7376 8.93399 27.6779C9.66561 27.5332 10.6788 27.8595 11.1815 28.4095C11.4526 28.6807 11.8025 28.859 12.1812 28.919C12.5598 28.9791 12.9478 28.9177 13.2895 28.7438C13.9369 28.378 15.0027 28.378 15.6527 28.7438C16.3027 29.1096 17.2502 28.9569 17.7581 28.4095C18.266 27.8569 19.2739 27.5332 20.0056 27.6779C20.3835 27.7388 20.771 27.6787 21.1127 27.5062C21.4544 27.3337 21.7328 27.0576 21.9083 26.7174ZM14.4737 23.4172C12.1006 23.4172 9.82472 22.4745 8.14669 20.7965C6.46865 19.1184 5.52594 16.8425 5.52594 14.4694C5.52594 12.0963 6.46865 9.82044 8.14669 8.1424C9.82472 6.46437 12.1006 5.52166 14.4737 5.52166C16.8468 5.52166 19.1227 6.46437 20.8008 8.1424C22.4788 9.82044 23.4215 12.0963 23.4215 14.4694C23.4215 16.8425 22.4788 19.1184 20.8008 20.7965C19.1227 22.4745 16.8468 23.4172 14.4737 23.4172ZM3.88113 28.7069L0.60993 47.2578L8.84188 46.0367L16.1606 50L19.4187 31.5228C16.788 32.292 14.0143 32.438 11.3175 31.9493C8.62056 31.4605 6.07455 30.3504 3.88113 28.7069ZM24.8979 28.8332C24.076 29.4306 23.2043 29.9562 22.2925 30.4044L20.324 41.5522L29.1902 36.7415L24.8979 28.8332Z" fill="#6BC9EF"/>
</svg>
