<svg width="50" height="54" viewBox="0 0 50 54" fill="none" xmlns="http://www.w3.org/2000/svg">
<path d="M49.437 33.256L43.6677 27.4868C43.307 27.1262 42.818 26.9237 42.3081 26.9237C41.7981 26.9237 41.3091 27.1262 40.9484 27.4868L23.0771 45.3581V53.8466H31.5657L49.437 35.9753C49.7975 35.6147 50 35.1256 50 34.6157C50 34.1057 49.7975 33.6167 49.437 33.256ZM29.9733 50.0004H26.9233V46.9504L36.5388 37.3349L39.5888 40.3849L29.9733 50.0004ZM42.3081 37.6657L39.258 34.6157L42.3081 31.5656L45.3581 34.6157L42.3081 37.6657ZM30.7695 21.154V17.3078H26.6502C26.4711 16.6195 26.196 15.9598 25.8329 15.3482L28.7502 12.4309L26.031 9.71162L23.1137 12.6289C22.502 12.266 21.8423 11.9908 21.154 11.8116V7.69237H17.3078V11.8116C16.6195 11.9908 15.9599 12.266 15.3482 12.6289L12.4309 9.71162L9.71163 12.4309L12.629 15.3482C12.2659 15.9598 11.9908 16.6195 11.8116 17.3078H7.69238V21.154H11.8116C11.9908 21.8424 12.2659 22.502 12.629 23.1136L9.71163 26.031L12.4309 28.7502L15.3482 25.8329C15.9599 26.1959 16.6195 26.471 17.3078 26.6502V30.7695H21.154V26.6502C21.8423 26.471 22.502 26.1959 23.1137 25.8329L26.031 28.7502L28.7502 26.031L25.8329 23.1136C26.196 22.502 26.4711 21.8424 26.6502 21.154H30.7695ZM19.2309 23.0771C18.4702 23.0771 17.7266 22.8515 17.0941 22.4289C16.4616 22.0063 15.9686 21.4056 15.6775 20.7028C15.3864 20 15.3103 19.2267 15.4587 18.4806C15.6071 17.7345 15.9734 17.0492 16.5113 16.5113C17.0492 15.9734 17.7345 15.607 18.4806 15.4586C19.2267 15.3102 20 15.3864 20.7028 15.6775C21.4056 15.9686 22.0063 16.4616 22.4289 17.0941C22.8515 17.7266 23.0771 18.4702 23.0771 19.2309C23.0761 20.2507 22.6706 21.2284 21.9495 21.9495C21.2284 22.6705 20.2507 23.0761 19.2309 23.0771Z" fill="#6BC9EF"/>
<path d="M15.3847 53.8466H3.84619C2.82643 53.8456 1.84873 53.44 1.12765 52.719C0.406568 51.9979 0.00101823 51.0202 0 50.0004V3.84619C0.00101823 2.82643 0.406568 1.84873 1.12765 1.12765C1.84873 0.406567 2.82643 0.00101823 3.84619 0H34.6157C35.6354 0.00101823 36.6131 0.406567 37.3342 1.12765C38.0553 1.84873 38.4608 2.82643 38.4619 3.84619V23.0771H34.6157V3.84619H3.84619V50.0004H15.3847V53.8466Z" fill="#6BC9EF"/>
</svg>
